<?xml version="1.0" encoding="UTF-8" standalone="no"?>
<!DOCTYPE svg PUBLIC "-//W3C//DTD SVG 1.1//EN" "http://www.w3.org/Graphics/SVG/1.1/DTD/svg11.dtd">
<svg height="53px" viewBox="0 0 94 53" version="1.1" xmlns="http://www.w3.org/2000/svg" style="fill-rule:evenodd;clip-rule:evenodd;stroke-linejoin:round;stroke-miterlimit:2;">
    <g transform="matrix(0.110105,0,0,0.110105,-11.9229,-1.71474)">
        <path d="M491.129,128.865C488.822,128.86 489.37,145.81 487.151,145.82C484.932,145.83 485.501,182.869 485.501,182.869L472.774,192.013L509.483,192.013L496.34,182.869C496.34,182.869 497.066,145.824 494.57,145.82C492.074,145.816 493.485,128.869 491.129,128.865Z" style="fill:rgb(219,222,107);"/>
    </g>
    <g transform="matrix(0.110105,0,0,0.110105,-11.8633,-1.71474)">
        <path d="M468.784,197.023L512.018,197.023C610.4,255.866 684.805,256.246 682.204,366.473C616.48,376.408 516.814,372.829 490.588,364.672C490.588,364.672 387.659,341.174 300.069,346.124C283.714,265.888 392.013,246.319 468.784,197.023Z" style="fill:rgb(160,215,173);"/>
    </g>
    <g transform="matrix(0.110105,0,0,0.110105,-11.8633,-1.71474)">
        <path d="M299.76,351.918C297.956,365.908 290.595,377.937 277.932,388.094C369.058,393.023 454.305,412.06 535.85,439.983C587.157,420.512 642.295,406.79 701.266,398.816C690.843,391.35 685.519,381.543 684.677,371.522C618.688,380.893 554.022,381.655 490.588,372.503C430.852,356.926 367.161,350.25 299.76,351.918Z" style="fill:rgb(126,148,127);"/>
    </g>
    <g transform="matrix(0.110105,0,0,0.110105,-11.8633,-1.71474)">
        <path d="M215.118,391.635L187.015,417.439C307.338,421.276 422.946,435.069 535.518,455.271C652.811,433.485 769.334,420.159 884.904,417.321L857.109,390.117C753.922,390.162 645.877,411.258 534.938,444.894C440.588,413.616 334.445,395.352 215.118,391.635Z" style="fill:rgb(217,217,217);"/>
    </g>
    <g transform="matrix(0.110105,0,0,0.110105,-11.8633,-1.71474)">
        <path d="M123.097,420.931L174.82,434.854C280.265,438.605 376.724,455.489 463.944,485.874L608.508,485.874C700.422,455.221 795.509,439.639 893.03,435.62L946.124,422.694C815.762,422.726 680.339,434.706 535.959,459.971C405.045,435.78 266.628,424.094 123.097,420.931Z" style="fill:rgb(93,93,93);"/>
    </g>
    <g transform="matrix(0.110105,0,0,0.110105,-11.8633,-1.71474)">
        <path d="M714.958,395.826L783.928,386.2C797.169,316.389 799.985,246.578 795.283,176.767C785.119,108.998 759.6,95.382 758.695,26.632C704.401,85.331 671.565,178.807 714.958,395.826Z" style="fill:rgb(223,214,145);"/>
    </g>
</svg>
